# xmcd CD database file
#
# Track frame offsets:
#	150
#	16917
#	31542
#	51132
#	71802
#	92862
#	109055
#	129850
#	149305
#	170447
#	191472
#	207695
#
# Disc length: 3047 seconds
#
# Revision: 2
# Processed by: cddbd v1.5.2PL0 Copyright (c) Steve Scherf et al.
# Submitted via: CDex 1.51
#
DISCID=a30be50c
DTITLE=Various Artists / Latin Mix USA (Vol 2)
DYEAR=1999
DGENRE=Latin
TTITLE0=Ricky Martin / Livin' la Vida Loca [Scissorhands English Radio Mix]
TTITLE1=Elvis Crespo / Suavemente [Hot Head Mix]
TTITLE2=Chayanne / Salomé [Pablo Flores Club Mix Radio Edit]
TTITLE3=MDO / Groove with Me Tonight [Pablo Flores Spanglish Remix]
TTITLE4=Will Smith / Miami Mix
TTITLE5=Ivy Queen ft. Wyclef Jean / In the Zone [King Sahpreem Remix]
TTITLE6=Shakira / Ciega Sordomuda [12" Single Edit]
TTITLE7=DLG (Dark Latin Groove) / Magdalena, Mi Amor [Quimbara]
TTITLE8=Fey / Díselo con Flores [House Mix]
TTITLE9=Jennifer Delgado / Que Tu Tienes
TTITLE10=Grupo Mania / Como Baila [Radio Mix]
TTITLE11=Jennifer Lopez (duet with Marc Anthony) / No Me Ames [Ballad Version]
EXTD= YEAR: 1999
EXTT0=
EXTT1=
EXTT2=
EXTT3=
EXTT4=
EXTT5=
EXTT6=
EXTT7=
EXTT8=
EXTT9=
EXTT10=
EXTT11=
PLAYORDER=
.
